<mxfile host="app.diagrams.net" modified="2024-01-30T15:05:07.521Z" agent="Mozilla/5.0 (Windows NT 10.0; Win64; x64) AppleWebKit/537.36 (KHTML, like Gecko) Chrome/121.0.0.0 Safari/537.36 Edg/121.0.0.0/8mqMlPuL-96" version="22.1.21" etag="knGR7WQJkNecksoxANQn" type="github">
  <diagram name="Page-1" id="LE1HiTj0I1qf5pSyFkvM">
    <mxGraphModel>
      <root>
        <mxCell id="0" />
        <mxCell id="1" parent="0" />
      </root>
    </mxGraphModel>
  </diagram>
</mxfile>
